<svg xmlns="http://www.w3.org/2000/svg" viewBox="0 0 512 512">
<rect width="512" height="512" rx="112" fill="#34b8b0"/>
<rect x="18" y="18" width="476" height="476" rx="98" fill="#27aaa6"/>
<g transform="translate(0 4)">
  <path d="M126 166h66l27 120c4 17 18 29 36 29h116" fill="none" stroke="#fff" stroke-width="24" stroke-linecap="round" stroke-linejoin="round"/>
  <path d="M205 212h164l-18 62H219" fill="none" stroke="#fff" stroke-width="24" stroke-linecap="round" stroke-linejoin="round"/>
  <circle cx="244" cy="350" r="18" fill="#fff"/>
  <circle cx="337" cy="350" r="18" fill="#fff"/>
  <path d="M148 129l64-31 67 31-67 32z" fill="#fff"/>
  <path d="M212 161v44c26 18 53 18 79 0v-44" fill="none" stroke="#fff" stroke-width="12" stroke-linecap="round"/>
  <path d="M279 145v45" stroke="#fff" stroke-width="9" stroke-linecap="round"/>
  <circle cx="279" cy="196" r="9" fill="#fff"/>
</g>
<text x="256" y="430" text-anchor="middle" font-family="Arial,Helvetica,sans-serif" font-size="46" font-weight="700" fill="#fff">StudentKart</text>
</svg>